/* XPM */
static char *bitcoin16[] = {
/* columns rows colors chars-per-pixel */
"17 17 97 2 ",
"   c #353335",
".  c #363335",
"X  c #353435",
"o  c #363434",
"O  c #363435",
"+  c #383634",
"@  c #393734",
"#  c #383735",
"$  c #3E3D33",
"%  c #3A3834",
"&  c #3A3835",
"*  c #3B3A34",
"=  c #413F33",
"-  c #403F34",
";  c #424133",
":  c #434233",
">  c #444333",
",  c #454433",
"<  c #464533",
"1  c #474732",
"2  c #494833",
"3  c #4C4B33",
"4  c #4E4E32",
"5  c #504F32",
"6  c #515032",
"7  c #515132",
"8  c #525232",
"9  c #595931",
"0  c #5A5A31",
"q  c #5E5F30",
"w  c #5F5F30",
"e  c #5F6030",
"r  c #63642F",
"t  c #67682F",
"y  c #67692F",
"u  c #696B2F",
"i  c #6A6B2F",
"p  c #6B6D2F",
"a  c #6D6E2F",
"s  c #6F712E",
"d  c #72732E",
"f  c #73752E",
"g  c #77792D",
"h  c #76782E",
"j  c #7B7D2C",
"k  c #7D7F2D",
"l  c #7C7F2E",
"z  c #606130",
"x  c #666730",
"c  c #676830",
"v  c #696A30",
"b  c #7E812D",
"n  c #7F822C",
"m  c #81842C",
"M  c #83852C",
"N  c #84872C",
"B  c #86892C",
"V  c #888B2B",
"C  c #8E912B",
"Z  c #8F932B",
"A  c #90942B",
"S  c #969A2A",
"D  c #979B2A",
"F  c #9A9E29",
"G  c #9A9F29",
"H  c #989C2A",
"J  c #9CA029",
"K  c #9CA129",
"L  c #9EA329",
"P  c #A0A429",
"I  c #A2A729",
"U  c #A4A928",
"Y  c #A7AC28",
"T  c #A9AE28",
"R  c #ACB127",
"E  c #ADB227",
"W  c #ADB327",
"Q  c #ABB028",
"!  c #B1B627",
"~  c #B2B827",
"^  c #B5BB26",
"/  c #B4BA27",
"(  c #B7BE26",
")  c #BBC226",
"_  c #BDC425",
"`  c #C2C825",
"'  c #C3CA25",
"]  c #C5CC25",
"[  c #C7CE24",
"{  c #CFD623",
"}  c #CAD124",
"|  c #CCD424",
" . c #CED624",
".. c #D3DB23",
"X. c #D4DC23",
"o. c #D5DD23",
"O. c None",
/* pixels */
"O.O.O.O.O.O.O.O.O.O.O.O.O.O.O.O.O.",
"O.O.O.O.O.> h F J C v & O.O.O.O.O.",
"O.O.O.1 M ( s 6 6 0 m } l O.O.O.O.",
"O.O.X a v X   + X X   X v e O.O.O.",
"O.O.B z         +       2 V z O.O.",
"O.x M +   + + X     + + X X X.  O.",
"O.Y 2 X + & X     + X &   + l v O.",
"  ..X X J / ' M T . V {   X 6 F O.",
"$ ` X X J ~ ' x P v D  .. O , E O.",
"+ | + + J C C I D A ~ X.w O 5 J O.",
"O.E , X e h w O X . & f O O f s O.",
"O.l v + X X O O X + X + O O ) ; O.",
"O.X E , O O O O O O O O O w V O.O.",
"O.O.X ^ , O O O O O O O ; E O O.O.",
"O.O.O.0 [ b , O O O 6 U ~ O O.O.O.",
"O.O.O.O.X c E { _ o.H 3 O.O.O.O.O.",
"O.O.O.O.O.O.O.+ ;   O.O.O.O.O.O.O."
};
