/* XPM */
static char *bitcoin32[] = {
/* columns rows colors chars-per-pixel */
"32 32 135 2 ",
"   c #373335",
".  c #363434",
"X  c #373434",
"o  c #363435",
"O  c #373435",
"+  c #373535",
"@  c #383634",
"#  c #393734",
"$  c #383436",
"%  c #383536",
"&  c #393834",
"*  c #3B3934",
"=  c #3D3B34",
"-  c #3D3C34",
";  c #3E3C34",
":  c #3F3E34",
">  c #403E34",
",  c #403F34",
"<  c #424133",
"1  c #434233",
"2  c #444233",
"3  c #444333",
"4  c #454433",
"5  c #464533",
"6  c #474633",
"7  c #484733",
"8  c #494833",
"9  c #4A4932",
"0  c #4A4A32",
"q  c #4C4B32",
"w  c #4F4E32",
"e  c #504F32",
"r  c #535231",
"t  c #535331",
"y  c #505032",
"u  c #515032",
"i  c #515132",
"p  c #525232",
"a  c #545431",
"s  c #555431",
"d  c #565731",
"f  c #585831",
"g  c #585931",
"h  c #595931",
"j  c #5A5B31",
"k  c #5B5B31",
"l  c #5C5C30",
"z  c #5D5E30",
"x  c #5F6030",
"c  c #64652F",
"v  c #66672F",
"b  c #67682F",
"n  c #68692F",
"m  c #696A2F",
"M  c #6B6D2F",
"N  c #6C6D2F",
"B  c #6E6F2E",
"V  c #72732E",
"C  c #72742E",
"Z  c #73752E",
"A  c #787B2D",
"S  c #797B2D",
"D  c #7C7F2D",
"F  c #7D7F2D",
"G  c #606130",
"H  c #616130",
"J  c #616230",
"K  c #626330",
"L  c #636430",
"P  c #7F812C",
"I  c #7E812D",
"U  c #83852C",
"Y  c #84872C",
"T  c #86892C",
"R  c #878A2C",
"E  c #888B2B",
"W  c #8A8D2B",
"Q  c #8C8F2B",
"!  c #8D902B",
"~  c #8D912B",
"^  c #8F932B",
"/  c #90932B",
"(  c #90942B",
")  c #92952A",
"_  c #92962A",
"`  c #94972A",
"'  c #95992A",
"]  c #979B2A",
"[  c #9A9E29",
"{  c #9A9F29",
"}  c #9B9F29",
"|  c #989C2A",
" . c #9CA129",
".. c #A2A729",
"X. c #A4A928",
"o. c #A5AA28",
"O. c #A6AB28",
"+. c #A6AC28",
"@. c #A8AD28",
"#. c #A8AE28",
"$. c #ACB127",
"%. c #AFB527",
"&. c #AAB028",
"*. c #ABB028",
"=. c #B0B627",
"-. c #B1B627",
";. c #B1B727",
":. c #B2B827",
">. c #B5BB26",
",. c #B6BC26",
"<. c #B7BE26",
"1. c #B9C026",
"2. c #BBC126",
"3. c #BBC226",
"4. c #BCC226",
"5. c #BDC326",
"6. c #BDC425",
"7. c #BEC425",
"8. c #BEC525",
"9. c #BFC625",
"0. c #C0C625",
"q. c #C1C825",
"w. c #C2C925",
"e. c #C3CA25",
"r. c #C5CC25",
"t. c #C6CD24",
"y. c #C7CE24",
"u. c #CAD124",
"i. c #CED524",
"p. c #CED624",
"a. c #D1D823",
"s. c #D2DA23",
"d. c #D5DD23",
"f. c #D6DE23",
"g. c None",
/* pixels */
"g.g.g.g.g.g.g.g.g.g.g.g.% O O O O O o o g.g.g.g.g.g.g.g.g.g.g.g.",
"g.g.g.g.g.g.g.g.g.o o o O O O O O O o o O O O g.g.g.g.g.g.g.g.g.",
"g.g.g.g.g.g.g.O o o O O O O O O o o o o o % o o O g.g.g.g.g.g.g.",
"g.g.g.g.g.g.O O o o . O w M ^ o.@.| T H * o o o O o g.g.g.g.g.g.",
"g.g.g.g.g.% O O o o Z o. .A g 8 7 p x T q.Z , o   o % g.g.g.g.g.",
"g.g.g.g.% O O O , 3.Z 8 o . O o O O o o o Z ,.A O o % % g.g.g.g.",
"g.g.g.o O O - O ,.- o o o o o o O . o o o o o M B 0 o     g.g.g.",
"g.g.o O O O 0 d.o o o o o o o o O O o o o o o o f.O o o %   g.g.",
"g.g.O O o s ] O O . . . o o o o o o o o o o o . O =.< O O O g.g.",
"g.O O O o y.% O O . . . o o o o o o o o o o o . O O ,., O O O g.",
"g.O O O r ] o o o o . o . . O O o o o o o o O O O . b I O O O g.",
"g.O O O q.* o o o o o o O O O O o o o o o o O O O . O q.* O O g.",
"o o o 6 o.o o o - 8.8.8.,.` 6 R ^ L O O O r 1.6.g O % Z Z O O o ",
"%   o c T o o o < f.f.Y 3.f.I :.u.f.t O - 6.f.f.x O O g ! O o o ",
"o % o Y c o o o < f.f.- W f.V o T f.g & &.y.y.f.H O O 3 =.o o o ",
"    o ! g o o o < f.f.f.f.f.w A s.^ O ^ a.g 3.f.x O   * q.o o o ",
"$ o o _ g o o o < f.f.g Y ^ +.f.6.^ L f.e.o.p.f.:.- . & t.. O O ",
"o o o T x o o o 3 f.f.L ^ ^ `  . . .x 3.3.3.s.f.q.* O - ,.O O O ",
"o $ o m I o o o < f.f.f.s.&.< o o o O O o o 3.f.x O O x T . O O ",
"  o o < =.o o o o < 3 3 - o o o o . . . o o < 3 % O O I m . O O ",
"g.o o o &.6 o o o o o o o o o o o o o o o o o o . O O 3.- o o g.",
"g.%   o g _ o o o o o o o o o o o o o o o o o o o O p  .o o o g.",
"g.O % o o p.o o o o o o o o o o o o o o o o o o o o o.8 O O O g.",
"g.g.  o o - 3.o o o o o o o o o o o o o o o o o o U L O O O g.g.",
"g.g.  % o O , d.O O . o o o o o o o o . . O O O s.b O O O O g.g.",
"g.g.g.o   O - - 1.O . . o o o o o o o O o O O b - 0 O % O g.g.g.",
"g.g.g.g.% O % O - f.^ * o o o o o o O O o p %.I o o o % g.g.g.g.",
"g.g.g.g.g.% O O O O g q.! c y 6 3 i x | 3.` < O o o % g.g.g.g.g.",
"g.g.g.g.g.g.O O O O O O l I  .&.=. .Y p - O O O O O g.g.g.g.g.g.",
"g.g.g.g.g.g.g.O O O O O O O O O o o . O O O O O O g.g.g.g.g.g.g.",
"g.g.g.g.g.g.g.g.g.O O O O O O O o o o o O O O g.g.g.g.g.g.g.g.g.",
"g.g.g.g.g.g.g.g.g.g.g.g.O O O O % o o o g.g.g.g.g.g.g.g.g.g.g.g."
};
