/* XPM */
static char *bitcoin64[] = {
/* columns rows colors chars-per-pixel */
"64 64 149 2 ",
"   c #353335",
".  c #363335",
"X  c #353435",
"o  c #363434",
"O  c #363435",
"+  c #373535",
"@  c #383634",
"#  c #393734",
"$  c #393834",
"%  c #3B3934",
"&  c #3B3A34",
"*  c #3C3A34",
"=  c #3D3B34",
"-  c #3D3C34",
";  c #3E3C34",
":  c #3F3E34",
">  c #403E34",
",  c #414033",
"<  c #424033",
"1  c #424133",
"2  c #444233",
"3  c #444333",
"4  c #474633",
"5  c #484733",
"6  c #4A4932",
"7  c #4A4A32",
"8  c #4C4B32",
"9  c #4C4C32",
"0  c #4E4D32",
"q  c #515032",
"w  c #515132",
"e  c #525232",
"r  c #555431",
"t  c #565731",
"y  c #585831",
"u  c #5A5B31",
"i  c #5B5B31",
"p  c #5D5E30",
"a  c #5E5F30",
"s  c #5F6030",
"d  c #65662F",
"f  c #66672F",
"g  c #67682F",
"h  c #67692F",
"j  c #68692F",
"k  c #696A2F",
"l  c #696B2F",
"z  c #6A6B2F",
"x  c #6C6D2F",
"c  c #6E6F2E",
"v  c #6E702E",
"b  c #70712E",
"n  c #70722E",
"m  c #71732E",
"M  c #72732E",
"N  c #72742E",
"B  c #73752E",
"V  c #74762E",
"C  c #75772E",
"Z  c #76782D",
"A  c #77792D",
"S  c #787A2D",
"D  c #787B2D",
"F  c #797B2D",
"G  c #7A7D2D",
"H  c #7D7F2D",
"J  c #606130",
"K  c #616230",
"L  c #626330",
"P  c #636430",
"I  c #646530",
"U  c #7F812C",
"Y  c #7E802D",
"T  c #7F822C",
"R  c #81842C",
"E  c #83852C",
"W  c #84872C",
"Q  c #85882C",
"!  c #86892C",
"~  c #878A2C",
"^  c #898C2B",
"/  c #8A8D2B",
"(  c #8B8E2B",
")  c #8F932B",
"_  c #90932B",
"`  c #94972A",
"'  c #979B2A",
"]  c #989C2A",
"[  c #999D2A",
"{  c #9CA129",
"}  c #9DA129",
"|  c #9EA229",
" . c #A0A429",
".. c #A3A728",
"X. c #A2A729",
"o. c #A3A828",
"O. c #A6AB28",
"+. c #A8AD28",
"@. c #A8AE28",
"#. c #A9AE28",
"$. c #ACB127",
"%. c #ADB327",
"&. c #AEB427",
"*. c #AFB527",
"=. c #AAB028",
"-. c #B1B627",
";. c #B1B727",
":. c #B2B827",
">. c #B3B927",
",. c #B4BA27",
"<. c #B6BC26",
"1. c #B8BE26",
"2. c #B9BF26",
"3. c #B9C026",
"4. c #BAC026",
"5. c #BBC126",
"6. c #BCC226",
"7. c #BDC326",
"8. c #BDC425",
"9. c #BEC425",
"0. c #BEC525",
"q. c #BFC625",
"w. c #C0C625",
"e. c #C1C825",
"r. c #C2C825",
"t. c #C2C925",
"y. c #C3CA25",
"u. c #C4CB25",
"i. c #C5CC25",
"p. c #C6CD24",
"a. c #C7CE24",
"s. c #CFD723",
"d. c #C8D024",
"f. c #C9D024",
"g. c #CAD124",
"h. c #CAD224",
"j. c #CCD424",
"k. c #CDD424",
"l. c #CED624",
"z. c #D0D823",
"x. c #D1D823",
"c. c #D1D923",
"v. c #D2DA23",
"b. c #D3DA23",
"n. c #D3DB23",
"m. c #D4DC23",
"M. c #D5DD23",
"N. c #D6DE23",
"B. c None",
/* pixels */
"B.B.B.B.B.B.B.B.B.B.B.B.B.B.B.B.B.B.B.B.B.B.B.B.B.B.O O O O O O O O O O X O B.B.B.B.B.B.B.B.B.B.B.B.B.B.B.B.B.B.B.B.B.B.B.B.B.B.",
"B.B.B.B.B.B.B.B.B.B.B.B.B.B.B.B.B.B.B.B.B.B.. . O O O O O O O O O O O O O O O O . . B.B.B.B.B.B.B.B.B.B.B.B.B.B.B.B.B.B.B.B.B.B.",
"B.B.B.B.B.B.B.B.B.B.B.B.B.B.B.B.B.B.B.B.O O O O O O O O O O O O O O O O O . O O O O O O B.B.B.B.B.B.B.B.B.B.B.B.B.B.B.B.B.B.B.B.",
"B.B.B.B.B.B.B.B.B.B.B.B.B.B.B.B.B.. O O O O O O O 1 g E ] #.,.3.3.,.=.] E l 3 O O O O O O O . B.B.B.B.B.B.B.B.B.B.B.B.B.B.B.B.B.",
"B.B.B.B.B.B.B.B.B.B.B.B.B.B.B.B.O O O O O O t ) 3.N.N.N.N.N.N.N.N.N.N.N.N.N.N.3.) y O O O O O O B.B.B.B.B.B.B.B.B.B.B.B.B.B.B.B.",
"B.B.B.B.B.B.B.B.B.B.B.B.B.B.O O O O O - T 0.N.N.N.N.1.{ W V g s a l m Q { <.N.N.N.N.7.H = O O O O O B.B.B.B.B.B.B.B.B.B.B.B.B.B.",
"B.B.B.B.B.B.B.B.B.B.B.B.B.. O O O = Q h.M.M.s.{ l 1 O O . O O O . O O O O O 1 l { s.N.N.h.W = O O O O B.B.B.B.B.B.B.B.B.B.B.B.B.",
"B.B.B.B.B.B.B.B.B.B.B.O O O O O j r.M.M.w.V : O O O O O O O O O O O O O O O O O O - Z 0.N.N.r.f O O O O O B.B.B.B.B.B.B.B.B.B.B.",
"B.B.B.B.B.B.B.B.B.B.. O O O - { N.N.r.v O O O O O O O O O O O O O O O O O O O O O O O @ v u.N.N.{ - O O O . B.B.B.B.B.B.B.B.B.B.",
"B.B.B.B.B.B.B.B.B.O O O O e 0.N.M.( & O O O O O O O O O O O O O O O O O O O O O O O O O O - ( n.N.0.e O O O O B.B.B.B.B.B.B.B.B.",
"B.B.B.B.B.B.B.B.. O O O a k.N.i.y O O O O O O O O O O O O O O O O O O O O O O O O O O O O O O y i.N.k.a O O O . B.B.B.B.B.B.B.B.",
"B.B.B.B.B.B.B.. O O O g c.N.*.1 O O O O O O O O O O O O O O O O O O O O O O O O O O O O O O O O 1 *.N.c.g O O O . B.B.B.B.B.B.B.",
"B.B.B.B.B.B.B.O . . a c.N...% O O O O O O O O O O O O O O O O O O O O O O O O O O O O O O O O O O % ..N.c.a . O O B.B.B.B.B.B.B.",
"B.B.B.B.B.B.O O O e j.N...@ O O O O O O O O O O O O O O O O O O O O O O O O O O O O O O O O O O O O O ..N.j.e . O O B.B.B.B.B.B.",
"B.B.B.B.B.O O O - 0.N.*.% O O O O O O O O O O O O O O O O O O O O O O O O O O O O O O O O O O O O O O * ;.N.0.- O O O B.B.B.B.B.",
"B.B.B.B.B.O O . { N.u.1 O O O O O O O O O O O O O O O O O O O O O O O O O O O O O O O O O O O O O O O O > u.N.{ O O O B.B.B.B.B.",
"B.B.B.B.O O O f N.N.y O O O O O O O O O O O O O O O O O O O O O O O O O O O O O O O O O O O O O O O O O O y N.N.g O O O B.B.B.B.",
"B.B.B.. O O % r.N.( O O O O O O O O O O O O O O O O O O O O O O O O O O O O O O O O O O O O O O O O O O O O ( N.r.& O O . B.B.B.",
"B.B.B.O O O E N.r.- O O O O O O O O O O O O O O O O O O O O O O O O O O O O O O O O O O O O O O O O O O O O : r.N.E O . O B.B.B.",
"B.B.B.O O - h.N.c O O O O O O O O O O O O O O O O O O O O O O O O O O O O O O O O O O O O O O O O O O O O O . v N.g.: . O B.B.B.",
"B.B.O O O H N.0.@ O O O O O O O O O O O O O O O O O O O O O O O O O O O O O O O O O O O O O O O O O O O O O O @ 0.N.T O O O B.B.",
"B.B.O O O 0.N.V O O O O O O O O O O O O O O O O O O O O O O O O O O O O O O O O O O O O O O O O O O O O O O O O V N.7.O O O B.B.",
"B.. O O y N.s.- O O O O O O O O O O O O O O O O O O O O O O O O O O O O O O O O O O O O O O O O O O O O O O O O = s.N.y O O O B.",
"B.O O O _ N.{ O O O O O O O O O O O O O O O O O O O O O O O O . O O O O O O O O O O O O O O O O O O O O O O O O O { N._ O O O B.",
"B.O O O 3.N.l O O O O O O O O O O O O O O O O O O O O O O O O . O O O O O O O O O O O O O O O O O O O O O O O O O l N.3.O O O B.",
"B.O O 2 N.N.1 O O O O O O O O O r.h.h.i.r.r.0.$.` t O O 6 f V f 1 O O O O O O O . 0 3.i.u.u.f . O O O O O O O O . 1 N.N.2 O O B.",
"O O O g N.1.O O O O O O O O O O N.N.N.N.N.N.N.N.N.M.v P N.N.N.N.c.Q O O O O O O - 7.N.N.N.N.m . O O O O O O O O O O 1.N.g O O O ",
". O O T N.{ O O O O O O O O O O N.N.N.N.,.*.k.N.N.N.i.% c.N.N.N.N.N.L O O O . @ O.N.N.N.N.N.m . O O O O O O O O O O { N.T O O O ",
"O O O ] N.W O O O O O O O O O O N.N.N.N.r . 5 c.N.N.N.- V g G N.N.M.( O O O O ^ N.N.N.N.N.N.m O O O O O O O O O O . W N.] O O O ",
"O O O @.N.m O O O O O O O O O O N.N.N.N.r . O r.N.N.h.O O O O 3.N.M.~ O O O x M.N.j.r.N.N.N.v O O O O O O O O O O . m N.#.O O O ",
". O O ;.N.f . O O O O O O O O O N.N.N.N.V y I N.N.N.T . O O f N.N.M.e O O r c.M.N.f ;.N.N.N.m . O O O O O O O O O O f N.;.O O . ",
"O O O 3.N.d . . O O O O O O O O N.N.N.N.N.N.N.N.N.M.d   O V c.N.M.G O O 3 i.M.M.R . ,.N.N.N.v O O O O O O O O O O O d N.3.O O O ",
"O O O 3.M.L O O O O O O O O O O N.N.N.N.M.M.N.N.N.k.N 3 #.N.N.k.j @ . @ ;.N.N. .O O >.M.M.M.n O O O O O O O O O O O L M.3.O O O ",
"  O O ;.M.j O O O O O O O O O O N.N.N.M.g 7 s 1.M.0 I h.M.N.n.Q V m q S M.M.M...' [ h.M.N.M.2.o.O O O O O O O O O O j N.>.O O   ",
"+ O O #.M.N O O O O O O O O O O N.N.M.M.t O O N N.< 0.N.N.N.M.N.M.M.' c N.N.M.M.N.N.N.N.N.N.N.k.O O O O O O O O O O n N.#.O O O ",
"O O O [ M.W O O O O O O O O O O N.N.M.M.t O O  .M.e *.N.N.N.M.M.M.M.] r N.N.N.N.N.N.N.N.N.N.N.7.O O O O O O O O O O Q M.[ O O O ",
". O O R M.{ @ O O O O O O O O O N.N.N.N.3.*.u.N.M.P O O % % % $ @ @ O @ A A C C Z S r.M.N.M.[ I O O O O O O O O O . { N.T O O O ",
"O O O I M.3.O O O O O O O O O O N.N.N.N.N.N.M.M.M.z.F O O O . O O O O O O O O O O O >.M.N.M.v O O O O O O O O O O @ 3.N.I O O O ",
"B.O O 3 M.M.< O O O O O O O O O t.t.t.i.i.i.7.@.E 0 O O O O O O O O O O O O O O O O ..h.h.a.g O O O O O O O O O O < M.N.3 O O B.",
"B.O O O 7.N.j O O O O O O O O O O O O O O O O O O O O O O O O O O O O O O O O O O O O O O O O O O O O O O O O O @ j M.3.O O O B.",
"B.O O O _ M.{ @ O O O O O O O O O O O O O O O O O O O O O O O O O O O O O O O O O O O O O O O O O O O O O O O O O } M._ O O O B.",
"B.. O O y M.s.- O O O O O O O O O O O O O O O O O O O O O O O O O O O O O O O O O O O O O O O O O O O O O O O O - k.M.y O O O B.",
"B.B.O O O 7.M.C O O O O O O O O O O O O O O O O O O O O O O O O O O O O O O O O O O O O O O O O O O O O O O O O A N.0.O O O B.B.",
"B.B.O O O T M.0.@ O O O O O O O O O O O O O O O O O O O O O O O O O O O O O O O O O O O O O O O O O O O O O O @ 7.M.T O O O B.B.",
"B.B.B.O O - h.M.x O O O O O O O O O O O O O O O O O O O O O O O O O O O O O O O O O O O O O O O O O O O O O O x M.h.- O O B.B.B.",
"B.B.B.O O O W N.t.= O O O O O O O O O O O O O O O O O O O O O O O O O O O O O O O O O O O O O O O O O O O O = u.M.E O O O B.B.B.",
"B.B.B.. O O = w.N.) O O O O O O O O O O O O O O O O O O O O O O O O O O O O O O O O O O O O O O O O O O O O ) N.t.= O O O B.B.B.",
"B.B.B.B.O . @ I N.M.y O O O O O O O O O O O O O O O O O O O O O O O O O O O O O O O O O O O O O O O O O O i c.M.I O O O B.B.B.B.",
"B.B.B.B.B.O O O { M.u.> @ . . O O O O O O O O O O O O O O O O O O O O O O O O O O O O O O O O O O O O O < r.N.{ O O O B.B.B.B.B.",
"B.B.B.B.B.O O O - 0.M.;.= . O O O O O O O O O O O O O O O O O O O O O O O O O O O O O O O O O O O O O = ;.M.0.- O O O B.B.B.B.B.",
"B.B.B.B.B.B.O O O e k.M...@ O O O O O O O O O O O O O O O O O O O O O O O O O O O O O O O O O O O . @ ..M.k.e O O O B.B.B.B.B.B.",
"B.B.B.B.B.B.B.O O O a c.M...% O O O O O O O O O O O O O O O O O O O O O O O O O O O O O O O O O O = ..M.c.a O O O B.B.B.B.B.B.B.",
"B.B.B.B.B.B.B.. O O O j c.M.*.< . O O O O O O O O O O O O O O O O O O O O O O O O O O O O O O O < *.M.c.j O O O O B.B.B.B.B.B.B.",
"B.B.B.B.B.B.B.B.O O O O s k.M.i.a O O O O O O O O O O O O O O O O O O O O O O O O O O O O O O i i.M.k.s O O O . B.B.B.B.B.B.B.B.",
"B.B.B.B.B.B.B.B.B.O O O O e 0.N.M.^ - O O O O O O O O O O O O O O O O O O O O O O O O O O % ^ M.M.0.e O O O O B.B.B.B.B.B.B.B.B.",
"B.B.B.B.B.B.B.B.B.B.O O O O - { N.N.r.x @ O O O O O O O O O O O O O O O O O O O O O O @ v u.N.N.{ - O O O O B.B.B.B.B.B.B.B.B.B.",
"B.B.B.B.B.B.B.B.B.B.B.O O O O O g r.M.M.0.Z - O O O O O O O O O O O O O O O O O O - A 0.N.N.r.g O O O O O B.B.B.B.B.B.B.B.B.B.B.",
"B.B.B.B.B.B.B.B.B.B.B.B.B.. O O O = Q h.N.M.z.{ j < O O O O O O O O O O O O < z { z.M.M.h.Q % O O O O B.B.B.B.B.B.B.B.B.B.B.B.B.",
"B.B.B.B.B.B.B.B.B.B.B.B.B.B.O O O O O = T 7.M.M.N.M.3.{ Q N g s s j N Q { 3.M.M.N.N.7.G - O O O O O B.B.B.B.B.B.B.B.B.B.B.B.B.B.",
"B.B.B.B.B.B.B.B.B.B.B.B.B.B.B.B.O O O O O O y ) 3.N.N.N.N.N.M.M.M.N.M.N.N.N.N.3.) y O O O O O O B.B.B.B.B.B.B.B.B.B.B.B.B.B.B.B.",
"B.B.B.B.B.B.B.B.B.B.B.B.B.B.B.B.B.O O O O O O O O 3 j E ] =.>.3.3.>.=.[ E j 3 O O O O O O O . B.B.B.B.B.B.B.B.B.B.B.B.B.B.B.B.B.",
"B.B.B.B.B.B.B.B.B.B.B.B.B.B.B.B.B.B.B.B.O O O O O O O O O O O O O O O O O O O O O O O O B.B.B.B.B.B.B.B.B.B.B.B.B.B.B.B.B.B.B.B.",
"B.B.B.B.B.B.B.B.B.B.B.B.B.B.B.B.B.B.B.B.B.B.O O O O O O O O O O O O O O O O O O O . B.B.B.B.B.B.B.B.B.B.B.B.B.B.B.B.B.B.B.B.B.B.",
"B.B.B.B.B.B.B.B.B.B.B.B.B.B.B.B.B.B.B.B.B.B.B.B.B.B.O O O X O O O O O O O O B.B.B.B.B.B.B.B.B.B.B.B.B.B.B.B.B.B.B.B.B.B.B.B.B.B."
};
